<svg viewBox="0 0 24 24" fill="none" xmlns="http://www.w3.org/2000/svg">
<path d="M0 8C0 7.44772 0.447715 7 1 7H2C2.55228 7 3 7.44772 3 8V16C3 16.5523 2.55228 17 2 17H1C0.447715 17 0 16.5523 0 16V8Z" fill="#303030"/>
<path d="M5 5C5 4.44772 5.44772 4 6 4H7C7.55228 4 8 4.44772 8 5V19C8 19.5523 7.55228 20 7 20H6C5.44772 20 5 19.5523 5 19V5Z" fill="#303030"/>
<path d="M10 7C10 6.44772 10.4477 6 11 6H12C12.5523 6 13 6.44772 13 7V17C13 17.5523 12.5523 18 12 18H11C10.4477 18 10 17.5523 10 17V7Z" fill="#303030"/>
<path d="M15 3C15 2.44772 15.4477 2 16 2H17C17.5523 2 18 2.44772 18 3V21C18 21.5523 17.5523 22 17 22H16C15.4477 22 15 21.5523 15 21V3Z" fill="#303030"/>
<path d="M20 6C20 5.44772 20.4477 5 21 5H22C22.5523 5 23 5.44772 23 6V18C23 18.5523 22.5523 19 22 19H21C20.4477 19 20 18.5523 20 18V6Z" fill="#303030"/>
</svg>
