<svg width="140" height="90" viewBox="0 0 140 90" fill="none" xmlns="http://www.w3.org/2000/svg">
<path d="M0 45C0 20.1472 20.1472 0 45 0H95C119.853 0 140 20.1472 140 45V84C140 87.3137 137.314 90 134 90H6C2.6863 90 0 87.3137 0 84V45Z" fill="#6FA5DA"/>
<path d="M48 45C48 41.6863 50.6863 39 54 39C57.3137 39 60 41.6863 60 45C60 48.3137 57.3137 51 54 51C50.6863 51 48 48.3137 48 45Z" fill="#1E293B"/>
<path d="M80 45C80 41.6863 82.6863 39 86 39C89.3137 39 92 41.6863 92 45C92 48.3137 89.3137 51 86 51C82.6863 51 80 48.3137 80 45Z" fill="#1E293B"/>
<path d="M58 73C58 71.3431 59.3431 70 61 70H79C80.6569 70 82 71.3431 82 73C82 74.6569 80.6569 76 79 76H61C59.3431 76 58 74.6569 58 73Z" fill="#1E293B"/>
</svg>
