<svg width="28" height="28" viewBox="0 0 28 28" fill="none" xmlns="http://www.w3.org/2000/svg">
<path d="M3.50001 24.5C3.16946 24.5 2.89257 24.388 2.66935 24.164C2.44613 23.94 2.33413 23.6631 2.33335 23.3333C2.33257 23.0036 2.44457 22.7267 2.66935 22.5027C2.89413 22.2787 3.17101 22.1667 3.50001 22.1667H24.5C24.8306 22.1667 25.1078 22.2787 25.3318 22.5027C25.5558 22.7267 25.6675 23.0036 25.6667 23.3333C25.6659 23.6631 25.5539 23.9404 25.3307 24.1652C25.1075 24.3899 24.8306 24.5016 24.5 24.5H3.50001ZM5.25001 21C4.7639 21 4.3509 20.8301 4.01101 20.4902C3.67113 20.1503 3.50079 19.7369 3.50001 19.25V14.5833C3.50001 14.0972 3.67035 13.6842 4.01101 13.3443C4.35168 13.0044 4.76468 12.8341 5.25001 12.8333C5.73535 12.8326 6.14874 13.0029 6.49018 13.3443C6.83163 13.6858 7.00157 14.0988 7.00001 14.5833V19.25C7.00001 19.7361 6.83007 20.1495 6.49018 20.4902C6.15029 20.8308 5.7369 21.0008 5.25001 21ZM11.0833 21C10.5972 21 10.1842 20.8301 9.84435 20.4902C9.50446 20.1503 9.33412 19.7369 9.33335 19.25V8.75C9.33335 8.26389 9.50368 7.85089 9.84435 7.511C10.185 7.17111 10.598 7.00078 11.0833 7C11.5687 6.99922 11.9821 7.16956 12.3235 7.511C12.665 7.85245 12.8349 8.26545 12.8333 8.75V19.25C12.8333 19.7361 12.6634 20.1495 12.3235 20.4902C11.9836 20.8308 11.5702 21.0008 11.0833 21ZM16.9167 21C16.4306 21 16.0176 20.8301 15.6777 20.4902C15.3378 20.1503 15.1675 19.7369 15.1667 19.25V12.25C15.1667 11.7639 15.337 11.3509 15.6777 11.011C16.0183 10.6711 16.4313 10.5008 16.9167 10.5C17.402 10.4992 17.8154 10.6696 18.1568 11.011C18.4983 11.3524 18.6682 11.7654 18.6667 12.25V19.25C18.6667 19.7361 18.4967 20.1495 18.1568 20.4902C17.817 20.8308 17.4036 21.0008 16.9167 21ZM22.75 21C22.2639 21 21.8509 20.8301 21.511 20.4902C21.1711 20.1503 21.0008 19.7369 21 19.25V5.25C21 4.76389 21.1703 4.35089 21.511 4.011C21.8517 3.67111 22.2647 3.50078 22.75 3.5C23.2353 3.49922 23.6487 3.66956 23.9902 4.011C24.3316 4.35245 24.5016 4.76545 24.5 5.25V19.25C24.5 19.7361 24.3301 20.1495 23.9902 20.4902C23.6503 20.8308 23.2369 21.0008 22.75 21Z" fill="#3B82F6"/>
</svg>
