<svg width="32" height="32" viewBox="0 0 32 32" fill="none" xmlns="http://www.w3.org/2000/svg">
<g clip-path="url(#clip0_1680_423)">
<path d="M23.3345 23.3338C27.6304 19.038 27.6304 12.0734 23.3345 7.77749C19.0386 3.4816 12.0741 3.4816 7.77817 7.77749C3.48229 12.0734 3.48229 19.038 7.77817 23.3338C9.02268 24.5783 10.4912 25.4619 12.0531 25.9862C12.4684 26.1246 12.8309 26.3953 13.0502 26.7749L14.3188 28.9691C14.4444 29.1863 14.6248 29.3667 14.842 29.4921C15.0593 29.6175 15.3057 29.6835 15.5565 29.6836C15.8074 29.6837 16.0538 29.6178 16.2711 29.4925C16.4884 29.3672 16.669 29.187 16.7946 28.9699L18.0625 26.7749C18.2871 26.3984 18.6418 26.1173 19.0596 25.9846C20.6709 25.4445 22.1344 24.537 23.3345 23.3338Z" stroke="black" stroke-width="1.75"/>
</g>
<defs>
<clipPath id="clip0_1680_423">
<rect width="31.1127" height="31.1127" fill="white" transform="translate(0 -0.000488281)"/>
</clipPath>
</defs>
</svg>
