<svg width="41" height="48" viewBox="0 0 41 48" fill="none" xmlns="http://www.w3.org/2000/svg">
<path d="M6.14215 6.14203C13.9528 -1.66867 26.6157 -1.66867 34.4264 6.14203C42.2371 13.9527 42.2371 26.6156 34.4264 34.4263C32.1724 36.6865 29.4083 38.372 26.3668 39.3407L22.465 46.2604C22.2474 46.6466 21.931 46.9679 21.5483 47.1915C21.1656 47.4151 20.7303 47.5329 20.2871 47.5329C19.8439 47.5329 19.4086 47.4151 19.0259 47.1915C18.6432 46.9679 18.3269 46.6466 18.1092 46.2604L14.2131 39.3435C11.1673 38.3756 8.39905 36.6891 6.14215 34.4263C-1.66855 26.6156 -1.66855 13.9527 6.14215 6.14203ZM8.26347 8.26335C5.07535 11.4515 3.28428 15.7755 3.28428 20.2842C3.28428 24.7928 5.07535 29.1169 8.26347 32.305C10.3424 34.3839 12.8681 35.8547 15.6315 36.6381L16.2255 36.8078L20.2871 44.0147L24.353 36.8036L24.9469 36.6339C27.4431 35.9216 29.7431 34.6471 31.6703 32.9081C33.5976 31.1691 35.1011 29.0119 36.0654 26.6018C37.0297 24.1917 37.4293 21.5928 37.2336 19.0044C37.0378 16.4159 36.2519 13.9067 34.936 11.6691C33.6202 9.43146 31.8094 7.52489 29.6425 6.09558C27.4755 4.66626 25.0101 3.75217 22.4352 3.42339C19.8602 3.0946 17.2442 3.35986 14.7877 4.19882C12.3311 5.03778 10.0994 6.42817 8.26347 8.26335Z" fill="black"/>
</svg>
