<svg viewBox="0 0 24 24" fill="none" xmlns="http://www.w3.org/2000/svg" width="100%" height="100%">
<g clip-path="url(#clip0_233_1765)">
<path d="M21.8011 10.0005C22.2578 12.2418 21.9323 14.5719 20.879 16.6023C19.8256 18.6326 18.108 20.2405 16.0126 21.1578C13.9172 22.0751 11.5707 22.2463 9.3644 21.6428C7.15807 21.0394 5.22529 19.6979 3.88838 17.8419C2.55146 15.9859 1.89122 13.7277 2.01776 11.4439C2.14431 9.16001 3.04998 6.98857 4.58375 5.29165C6.11752 3.59473 8.18668 2.47491 10.4462 2.11893C12.7056 1.76295 15.0189 2.19234 17.0001 3.33548" stroke="white" stroke-width="2.66667" stroke-linecap="round" stroke-linejoin="round"/>
<path d="M9 11L12 14L22 4" stroke="white" stroke-width="2.66667" stroke-linecap="round" stroke-linejoin="round"/>
</g>
<defs>
<clipPath id="clip0_233_1765">
<path d="M0 0H24V24H0V0Z" fill="white" stroke="white"/>
</clipPath>
</defs>
</svg>
