<svg width="24" height="24" viewBox="0 0 24 24" fill="none" xmlns="http://www.w3.org/2000/svg">
<g clip-path="url(#clip0_233_1787)">
<path fill-rule="evenodd" clip-rule="evenodd" d="M2.92636 0.502705C2.60304 0.190434 2.17 0.0176433 1.72052 0.0215492C1.27104 0.025455 0.84108 0.205745 0.523238 0.523587C0.205395 0.84143 0.0251055 1.27139 0.0211996 1.72087C0.0172938 2.17035 0.190084 2.60339 0.502355 2.9267L9.57607 12.0004L0.502355 21.0741C0.338623 21.2323 0.208025 21.4214 0.118181 21.6306C0.0283373 21.8397 -0.0189534 22.0647 -0.0209314 22.2923C-0.0229093 22.5199 0.020465 22.7457 0.106661 22.9563C0.192857 23.167 0.320148 23.3584 0.481107 23.5194C0.642066 23.6803 0.833469 23.8076 1.04415 23.8938C1.25483 23.98 1.48056 24.0234 1.70819 24.0214C1.93581 24.0194 2.16076 23.9722 2.36991 23.8823C2.57906 23.7925 2.76822 23.6619 2.92636 23.4981L12.0001 14.4244L21.0738 23.4981C21.3971 23.8104 21.8301 23.9832 22.2796 23.9793C22.7291 23.9754 23.1591 23.7951 23.4769 23.4773C23.7947 23.1594 23.975 22.7294 23.9789 22.28C23.9828 21.8305 23.8101 21.3975 23.4978 21.0741L14.4241 12.0004L23.4978 2.9267C23.8101 2.60339 23.9828 2.17035 23.9789 1.72087C23.975 1.27139 23.7947 0.84143 23.4769 0.523587C23.1591 0.205745 22.7291 0.025455 22.2796 0.0215492C21.8301 0.0176433 21.3971 0.190434 21.0738 0.502705L12.0001 9.57642L2.92636 0.502705Z" fill="#303030"/>
</g>
<defs>
<clipPath id="clip0_233_1787">
<rect width="24" height="24" fill="white"/>
</clipPath>
</defs>
</svg>
