<svg viewBox="0 0 24 24" fill="none" xmlns="http://www.w3.org/2000/svg">
<path d="M3.99512 17.2069V19.4999C3.99512 19.6325 4.0478 19.7596 4.14156 19.8534C4.23533 19.9472 4.36251 19.9999 4.49512 19.9999H6.79312C6.92547 19.9998 7.05241 19.9473 7.14612 19.8539L16.5941 10.4058L13.5941 7.40585L4.14212 16.8539C4.04828 16.9474 3.99541 17.0744 3.99512 17.2069ZM14.8321 6.16685L17.8321 9.16685L19.2921 7.70685C19.4796 7.51932 19.5849 7.26501 19.5849 6.99985C19.5849 6.73468 19.4796 6.48038 19.2921 6.29285L17.7071 4.70685C17.5196 4.51938 17.2653 4.41406 17.0001 4.41406C16.735 4.41406 16.4806 4.51938 16.2931 4.70685L14.8321 6.16685Z" fill="currentColor"/>
</svg>
