<svg width="81" height="80" viewBox="0 0 81 80" fill="none" xmlns="http://www.w3.org/2000/svg">
<path d="M0.5 40C0.5 17.9086 18.4086 0 40.5 0C62.5914 0 80.5 17.9086 80.5 40C80.5 62.0914 62.5914 80 40.5 80C18.4086 80 0.5 62.0914 0.5 40Z" fill="#F8FAFC"/>
<path d="M46.5 34L34.5 46M34.5 34L46.5 46M60.5 40C60.5 51.0457 51.5457 60 40.5 60C29.4543 60 20.5 51.0457 20.5 40C20.5 28.9543 29.4543 20 40.5 20C51.5457 20 60.5 28.9543 60.5 40Z" stroke="#CBD5E1" stroke-width="4" stroke-linecap="round" stroke-linejoin="round"/>
</svg>
