<svg width="81" height="80" viewBox="0 0 81 80" fill="none" xmlns="http://www.w3.org/2000/svg">
<path d="M0.5 40C0.5 17.9086 18.4086 0 40.5 0C62.5914 0 80.5 17.9086 80.5 40C80.5 62.0914 62.5914 80 40.5 80C18.4086 80 0.5 62.0914 0.5 40Z" fill="#F8FAFC"/>
<path d="M60.5 60H20.5V20H60.5V60Z" stroke="#CBD5E1"/>
<path d="M33.8335 23.3335V30.0002" stroke="#CBD5E1" stroke-width="3.33333" stroke-linecap="round" stroke-linejoin="round"/>
<path d="M47.1665 23.3335V30.0002" stroke="#CBD5E1" stroke-width="3.33333" stroke-linecap="round" stroke-linejoin="round"/>
<path d="M52.1667 26.6665H28.8333C26.9924 26.6665 25.5 28.1589 25.5 29.9998V53.3332C25.5 55.1741 26.9924 56.6665 28.8333 56.6665H52.1667C54.0076 56.6665 55.5 55.1741 55.5 53.3332V29.9998C55.5 28.1589 54.0076 26.6665 52.1667 26.6665Z" stroke="#CBD5E1" stroke-width="3.33333" stroke-linecap="round" stroke-linejoin="round"/>
<path d="M25.5 36.6665H55.5" stroke="#CBD5E1" stroke-width="3.33333" stroke-linecap="round" stroke-linejoin="round"/>
<path d="M43.8332 43.3335L37.1665 50.0002" stroke="#CBD5E1" stroke-width="3.33333" stroke-linecap="round" stroke-linejoin="round"/>
<path d="M37.1665 43.3335L43.8332 50.0002" stroke="#CBD5E1" stroke-width="3.33333" stroke-linecap="round" stroke-linejoin="round"/>
</svg>
