<svg width="20" height="20" viewBox="0 0 20 20" fill="none" xmlns="http://www.w3.org/2000/svg">
<path d="M15.8333 2.5C16.2917 2.5 16.6839 2.66306 17.01 2.98917C17.3361 3.31528 17.4994 3.70778 17.5 4.16667V6.66667C17.5 6.90278 17.42 7.10056 17.26 7.26C17.1 7.41944 16.9022 7.49944 16.6667 7.5C16.4311 7.50056 16.2331 7.42056 16.0725 7.26C15.9119 7.09944 15.8322 6.90167 15.8333 6.66667V4.16667L4.16666 4.16667L4.16666 15.8333L15.8333 15.8333V13.3333C15.8333 13.0972 15.9133 12.8992 16.0733 12.7392C16.2333 12.5792 16.4311 12.4994 16.6667 12.5C16.9022 12.5006 17.1 12.5806 17.26 12.74C17.42 12.8994 17.5 13.0972 17.5 13.3333V15.8333C17.5 16.2917 17.3367 16.6839 17.01 17.01C16.6833 17.3361 16.2911 17.4994 15.8333 17.5H4.16666C3.70833 17.5 3.31583 17.3367 2.98916 17.01C2.6625 16.6833 2.49944 16.2911 2.5 15.8333L2.5 4.16667C2.5 3.70833 2.66305 3.31583 2.98916 2.98917C3.31528 2.6625 3.70778 2.49944 4.16666 2.5L15.8333 2.5ZM10.2917 9.16667H16.6667C16.9028 9.16667 17.1006 9.24667 17.26 9.40667C17.4194 9.56667 17.4994 9.76444 17.5 10C17.5006 10.2356 17.4206 10.4333 17.26 10.5933C17.0994 10.7533 16.9017 10.8333 16.6667 10.8333H10.2917L11.8333 12.375C12 12.5417 12.08 12.7361 12.0733 12.9583C12.0667 13.1806 11.9867 13.375 11.8333 13.5417C11.6667 13.7083 11.4686 13.795 11.2392 13.8017C11.0097 13.8083 10.8119 13.7286 10.6458 13.5625L7.66666 10.5833C7.58333 10.5 7.52416 10.4097 7.48916 10.3125C7.45416 10.2153 7.43694 10.1111 7.4375 10C7.43805 9.88889 7.45528 9.78472 7.48916 9.6875C7.52305 9.59028 7.58222 9.5 7.66666 9.41667L10.6458 6.4375C10.8125 6.27083 11.0103 6.19083 11.2392 6.1975C11.4681 6.20417 11.6661 6.29111 11.8333 6.45833C11.9861 6.625 12.0661 6.81944 12.0733 7.04167C12.0806 7.26389 12.0006 7.45833 11.8333 7.625L10.2917 9.16667Z" fill="#3B82F6"/>
</svg>
