<svg width="20" height="20" viewBox="0 0 20 20" fill="none" xmlns="http://www.w3.org/2000/svg">
<g clip-path="url(#clip0_233_748)">
<path d="M8.94409 4.22991C10.8852 3.99858 12.8488 4.40893 14.5348 5.39829C16.2209 6.38764 17.5368 7.90164 18.2816 9.70908C18.351 9.89618 18.351 10.102 18.2816 10.2891C17.9753 11.0316 17.5706 11.7295 17.0783 12.3641" stroke="#94A3B8" stroke-width="1.66667" stroke-linecap="round" stroke-linejoin="round"/>
<path d="M11.7368 11.7982C11.2653 12.2536 10.6338 12.5056 9.97828 12.4999C9.32278 12.4942 8.69575 12.2313 8.23223 11.7677C7.76871 11.3042 7.50579 10.6772 7.50009 10.0217C7.4944 9.36619 7.74638 8.73469 8.20178 8.26318" stroke="#94A3B8" stroke-width="1.66667" stroke-linecap="round" stroke-linejoin="round"/>
<path d="M14.5658 14.5827C13.4604 15.2375 12.2271 15.6468 10.9495 15.783C9.6719 15.9191 8.37997 15.7789 7.16137 15.3717C5.94277 14.9646 4.82601 14.3001 3.88686 13.4233C2.94771 12.5465 2.20814 11.4779 1.71835 10.2901C1.6489 10.1031 1.6489 9.89725 1.71835 9.71015C2.45721 7.91836 3.75724 6.41452 5.42335 5.42432" stroke="#94A3B8" stroke-width="1.66667" stroke-linecap="round" stroke-linejoin="round"/>
<path d="M1.66675 1.6665L18.3334 18.3332" stroke="#94A3B8" stroke-width="1.66667" stroke-linecap="round" stroke-linejoin="round"/>
</g>
<defs>
<clipPath id="clip0_233_748">
<path d="M0 0H20V20H0V0Z" fill="white"/>
</clipPath>
</defs>
</svg>
