<svg width="48" height="49" viewBox="0 0 48 49" fill="none" xmlns="http://www.w3.org/2000/svg">
<path d="M30 4.5H12C10.9391 4.5 9.92172 4.92143 9.17157 5.67157C8.42143 6.42172 8 7.43913 8 8.5V40.5C8 41.5609 8.42143 42.5783 9.17157 43.3284C9.92172 44.0786 10.9391 44.5 12 44.5H36C37.0609 44.5 38.0783 44.0786 38.8284 43.3284C39.5786 42.5783 40 41.5609 40 40.5V14.5L30 4.5Z" stroke="#CBD5E1" stroke-width="4" stroke-linecap="round" stroke-linejoin="round"/>
<path d="M28 4.5V12.5C28 13.5609 28.4214 14.5783 29.1716 15.3284C29.9217 16.0786 30.9391 16.5 32 16.5H40" stroke="#CBD5E1" stroke-width="4" stroke-linecap="round" stroke-linejoin="round"/>
<path d="M29 25.5L19 35.5" stroke="#CBD5E1" stroke-width="4" stroke-linecap="round" stroke-linejoin="round"/>
<path d="M19 25.5L29 35.5" stroke="#CBD5E1" stroke-width="4" stroke-linecap="round" stroke-linejoin="round"/>
</svg>
