<svg width="3117" height="1078" viewBox="0 0 3117 1078" fill="none" xmlns="http://www.w3.org/2000/svg">
<path d="M1068.42 660C1064.42 677.333 1060.92 694.667 1057.92 712C1054.92 729 1052.25 745.5 1049.92 761.5C1068.58 761.5 1086.08 762 1102.42 763C1119.08 763.667 1134.42 765 1148.42 767L1138.42 845.5C1126.75 844.167 1114.58 843.333 1101.92 843C1089.58 842.333 1077.08 842 1064.42 842C1056.75 842 1049.08 842.167 1041.42 842.5C1039.42 866.833 1038.08 887.667 1037.42 905C1037.08 922.333 1036.92 934.667 1036.92 942C1036.92 960.333 1037.92 973.5 1039.92 981.5C1042.25 989.5 1045.92 993.5 1050.92 993.5C1056.58 993.5 1062.92 991.667 1069.92 988C1076.92 984 1083.75 978.667 1090.42 972C1097.42 965.333 1103.25 958.167 1107.92 950.5L1146.42 1031C1113.42 1062.33 1078.08 1078 1040.42 1078C1020.42 1078 1004.58 1073.67 992.918 1065C981.251 1056.67 972.751 1045 967.418 1030C962.085 1015 958.585 997.833 956.918 978.5C955.585 959.167 954.918 938.833 954.918 917.5C954.918 895.5 955.751 872.667 957.418 849C935.085 852 913.585 855.833 892.918 860.5L877.418 782C905.085 774.667 934.585 769.333 965.918 766C968.251 749 970.751 731.167 973.418 712.5C976.085 693.5 979.085 673.5 982.418 652.5L1068.42 660ZM842.082 765.5C840.749 780.833 839.915 799.833 839.582 822.5C839.249 844.833 839.082 868.333 839.082 893C839.082 917.333 839.249 941.333 839.582 965C839.915 988.667 840.249 1010.17 840.582 1029.5C841.249 1048.5 841.749 1063.17 842.082 1073.5H755.082C754.082 1052.83 753.415 1030.83 753.082 1007.5C752.749 983.833 752.582 960.167 752.582 936.5C752.582 905.5 752.915 875.333 753.582 846C754.249 816.667 755.082 790 756.082 766L842.082 765.5ZM722.106 524.842L495.916 634.396V745.208L722.106 723.923V805.824L495.916 856.261V1070.5H384.793V688.256L164.881 794.7C151.602 801.197 134.655 795.921 127.266 783.15L55.2588 658.55C51.7453 652.199 50.7034 644.774 52.334 637.702C53.9646 630.63 58.1525 624.41 64.0928 620.236L576.535 272.752L722.106 524.842ZM848.582 632.5C847.582 643.833 846.415 656.667 845.082 671C844.082 685.333 843.415 700.167 843.082 715.5H757.082C757.082 712.5 756.915 709.5 756.582 706.5V695.5C756.582 684.833 756.915 673.5 757.582 661.5C758.249 649.5 758.915 639.333 759.582 631L848.582 632.5ZM713.217 101.73C765.015 71.8273 826.576 63.7094 884.362 79.1621C942.149 94.6148 991.428 132.373 1021.36 184.132C1051.27 235.91 1059.38 297.444 1043.9 355.195C1028.41 412.947 990.606 462.186 938.796 492.081C888.124 521.232 831.34 526.897 778.501 515.125L613.15 228.83C629.43 177.191 662.656 130.882 713.217 101.73ZM835.945 166.697C824.367 163.464 812.049 164.1 800.865 168.51L800.79 168.54C788.757 173.36 777.643 179.857 760.731 189.684C744.351 199.202 733.351 205.558 723.475 213.27L722.462 214.066C713.093 221.599 706.442 231.986 703.518 243.646C700.601 255.277 701.554 267.539 706.229 278.579V278.58C706.24 278.608 706.252 278.637 706.264 278.665H706.265C714.773 298.987 727.019 320.017 738.167 339.203C749.345 358.44 761.57 379.527 775.035 396.996V396.994C782.319 406.512 792.504 413.399 804.051 416.614C815.62 419.835 827.925 419.195 839.097 414.787C839.108 414.783 839.119 414.777 839.13 414.772C851.178 409.985 862.339 403.461 879.242 393.639C896.129 383.826 907.301 377.373 917.447 369.306L917.511 369.256L918.381 368.541C927.292 361.073 933.624 350.972 936.457 339.676C939.375 328.038 938.419 315.767 933.736 304.723L933.737 304.724C927.09 288.889 918.177 272.611 909.277 257.093L917.26 252.454C921.807 256.671 927.189 259.863 933.437 261.519C944.709 264.505 956.011 261.76 966.012 255.949C976.013 250.138 983.991 241.678 986.962 230.397C989.93 219.127 987.162 207.839 981.362 197.858C975.551 187.857 967.093 179.88 955.823 176.898C944.557 173.918 933.267 176.669 923.283 182.47C913.289 188.277 905.317 196.734 902.333 207.997C900.68 214.235 900.786 220.482 902.192 226.513L894.205 231.153C885.507 216.377 876.205 201.244 866.22 188.016L864.965 186.367C857.688 176.831 847.5 169.925 835.945 166.697ZM811.87 196.419C816.972 194.407 822.593 194.116 827.876 195.592C833.158 197.067 837.814 200.228 841.135 204.592C841.149 204.611 841.165 204.63 841.18 204.649C853.207 220.297 864.427 239.562 875.827 259.181C887.242 278.825 898.436 298.138 906.075 316.335C906.085 316.357 906.094 316.38 906.104 316.402C908.251 321.449 908.691 327.059 907.357 332.379C906.023 337.699 902.988 342.438 898.714 345.874C890.659 352.269 881.625 357.557 864.17 367.699C846.658 377.875 837.609 383.091 828.086 386.879C822.989 388.89 817.375 389.183 812.097 387.714C806.818 386.244 802.164 383.093 798.84 378.737L798.797 378.682C786.754 363.057 775.522 343.777 764.106 324.131C752.705 304.51 741.516 285.204 733.905 267.005C733.893 266.977 733.882 266.948 733.87 266.92C731.723 261.873 731.282 256.263 732.616 250.943C733.909 245.79 736.797 241.181 740.862 237.773L741.26 237.448C749.289 231.069 758.318 225.783 775.804 215.623C793.283 205.467 802.326 200.251 811.87 196.419ZM856.353 313.356C852.191 306.194 843.009 303.761 835.847 307.923L826.262 313.493C819.099 317.655 816.666 326.835 820.828 333.998C824.99 341.161 834.171 343.594 841.334 339.432L850.919 333.862C858.082 329.7 860.514 320.519 856.353 313.356ZM819.073 249.201C814.911 242.038 805.731 239.606 798.568 243.768L788.982 249.337C781.82 253.499 779.388 262.68 783.55 269.843C787.712 277.005 796.892 279.438 804.055 275.276L813.641 269.706C820.803 265.544 823.235 256.364 819.073 249.201ZM938.355 208.408C943.564 205.382 946.639 205.501 948.15 205.9C949.659 206.3 952.392 207.715 955.423 212.931C958.465 218.167 958.348 221.251 957.951 222.758C957.557 224.255 956.155 226.979 950.939 230.01C945.723 233.041 942.639 232.922 941.12 232.52C939.601 232.117 936.863 230.693 933.832 225.477C930.811 220.278 930.93 217.199 931.332 215.681C931.735 214.162 933.157 211.429 938.355 208.408Z" fill="#3B82F6"/>
<path d="M1358.42 1038C1326.42 1038 1298.25 1031.67 1273.92 1019C1249.92 1006.67 1231.08 989.333 1217.42 967C1204.08 944.667 1197.42 918.833 1197.42 889.5C1197.42 871.833 1200.42 853.333 1206.42 834C1212.42 814.333 1222.08 796 1235.42 779C1248.75 762 1266.25 748.167 1287.92 737.5C1309.92 726.833 1336.58 721.5 1367.92 721.5C1390.58 721.5 1409.58 724 1424.92 729C1440.58 734 1453.25 740.5 1462.92 748.5C1472.92 756.5 1480.42 765 1485.42 774C1490.75 783 1494.25 791.667 1495.92 800C1497.92 808 1498.92 814.667 1498.92 820C1498.92 852.333 1485.25 877.333 1457.92 895C1430.92 912.333 1392.58 921 1342.92 921C1331.58 921 1320.75 920.5 1310.42 919.5C1300.42 918.5 1291.08 917.333 1282.42 916C1288.75 932.667 1299.25 945 1313.92 953C1328.58 960.667 1343.75 964.5 1359.42 964.5C1382.08 964.5 1402.08 960.5 1419.42 952.5C1436.75 944.167 1453.08 931.5 1468.42 914.5L1512.92 978.5C1502.25 987.167 1490.25 996.167 1476.92 1005.5C1463.92 1014.83 1447.92 1022.5 1428.92 1028.5C1409.92 1034.83 1386.42 1038 1358.42 1038ZM1369.42 796.5C1349.75 796.5 1332.42 801.5 1317.42 811.5C1302.42 821.5 1291.42 834.667 1284.42 851C1292.75 852.333 1300.92 853.5 1308.92 854.5C1317.25 855.167 1325.42 855.5 1333.42 855.5C1340.75 855.5 1349.08 854.833 1358.42 853.5C1368.08 852.167 1377.42 850.167 1386.42 847.5C1395.75 844.833 1403.42 841.5 1409.42 837.5C1415.42 833.167 1418.42 828.167 1418.42 822.5C1418.42 819.833 1417.08 816.5 1414.42 812.5C1411.75 808.5 1406.92 804.833 1399.92 801.5C1392.92 798.167 1382.75 796.5 1369.42 796.5ZM1549.66 1037C1550.99 1009.33 1551.99 981.667 1552.66 954C1553.32 926.333 1553.66 899 1553.66 872C1553.32 847.333 1552.82 823 1552.16 799C1551.82 774.667 1550.99 751.167 1549.66 728.5L1633.66 726C1633.99 738.333 1634.49 751 1635.16 764C1645.82 750.667 1658.16 740 1672.16 732C1686.49 723.667 1702.82 719.5 1721.16 719.5C1728.16 719.5 1737.16 720.5 1748.16 722.5C1759.16 724.5 1770.32 728.333 1781.66 734L1772.16 818.5C1763.82 813.5 1754.82 810 1745.16 808C1735.82 805.667 1727.99 804.5 1721.66 804.5C1700.32 804.5 1682.16 814.167 1667.16 833.5C1652.49 852.5 1642.49 879 1637.16 913C1637.16 936.333 1636.82 958.667 1636.16 980C1635.82 1001 1634.99 1020 1633.66 1037H1549.66ZM1945.64 1037C1931.98 1037 1920.14 1033 1910.14 1025C1900.14 1017 1891.48 1007.17 1884.14 995.5C1876.81 983.833 1870.31 972.5 1864.64 961.5C1854.31 940.5 1844.48 917.5 1835.14 892.5C1825.81 867.5 1817.64 841.5 1810.64 814.5C1803.64 787.5 1798.31 760.833 1794.64 734.5L1885.14 721.5C1887.81 752.5 1891.98 781.667 1897.64 809C1903.31 836.333 1909.98 860.667 1917.64 882C1925.31 903.333 1933.14 920.667 1941.14 934C1942.81 936.333 1944.31 938.667 1945.64 941C1947.31 943.333 1948.14 944.5 1948.14 944.5C1948.81 944.5 1951.48 941 1956.14 934C1970.81 908.333 1984.48 878.333 1997.14 844C2009.81 809.667 2020.81 768.167 2030.14 719.5L2118.14 737C2109.48 768.333 2101.48 795.667 2094.14 819C2086.81 842 2079.64 862.167 2072.64 879.5C2065.64 896.833 2058.64 912.5 2051.64 926.5C2044.64 940.167 2037.31 953.5 2029.64 966.5C2024.64 975.5 2018.14 985.5 2010.14 996.5C2002.48 1007.5 1993.31 1017 1982.64 1025C1971.98 1033 1959.64 1037 1945.64 1037ZM2157.09 675C2157.09 672 2156.92 669 2156.59 666C2156.59 662.667 2156.59 659 2156.59 655C2156.59 644.333 2156.92 633 2157.59 621C2158.26 609 2158.92 598.833 2159.59 590.5L2248.59 592C2247.59 603.333 2246.42 616.167 2245.09 630.5C2244.09 644.833 2243.42 659.667 2243.09 675H2157.09ZM2155.09 1033C2154.09 1012.33 2153.42 990.333 2153.09 967C2152.76 943.333 2152.59 919.667 2152.59 896C2152.59 865 2152.92 834.833 2153.59 805.5C2154.26 776.167 2155.09 749.5 2156.09 725.5L2242.09 725C2240.76 740.333 2239.92 759.333 2239.59 782C2239.26 804.333 2239.09 827.833 2239.09 852.5C2239.09 876.833 2239.26 900.833 2239.59 924.5C2239.92 948.167 2240.26 969.667 2240.59 989C2241.26 1008 2241.76 1022.67 2242.09 1033H2155.09ZM2441.43 1038C2409.43 1038 2381.26 1031.67 2356.93 1019C2332.93 1006.67 2314.09 989.333 2300.43 967C2287.09 944.667 2280.43 918.833 2280.43 889.5C2280.43 871.833 2283.43 853.333 2289.43 834C2295.43 814.333 2305.09 796 2318.43 779C2331.76 762 2349.26 748.167 2370.93 737.5C2392.93 726.833 2419.59 721.5 2450.93 721.5C2473.59 721.5 2492.59 724 2507.93 729C2523.59 734 2536.26 740.5 2545.93 748.5C2555.93 756.5 2563.43 765 2568.43 774C2573.76 783 2577.26 791.667 2578.93 800C2580.93 808 2581.93 814.667 2581.93 820C2581.93 852.333 2568.26 877.333 2540.93 895C2513.93 912.333 2475.59 921 2425.93 921C2414.59 921 2403.76 920.5 2393.43 919.5C2383.43 918.5 2374.09 917.333 2365.43 916C2371.76 932.667 2382.26 945 2396.93 953C2411.59 960.667 2426.76 964.5 2442.43 964.5C2465.09 964.5 2485.09 960.5 2502.43 952.5C2519.76 944.167 2536.09 931.5 2551.43 914.5L2595.93 978.5C2585.26 987.167 2573.26 996.167 2559.93 1005.5C2546.93 1014.83 2530.93 1022.5 2511.93 1028.5C2492.93 1034.83 2469.43 1038 2441.43 1038ZM2452.43 796.5C2432.76 796.5 2415.43 801.5 2400.43 811.5C2385.43 821.5 2374.43 834.667 2367.43 851C2375.76 852.333 2383.93 853.5 2391.93 854.5C2400.26 855.167 2408.43 855.5 2416.43 855.5C2423.76 855.5 2432.09 854.833 2441.43 853.5C2451.09 852.167 2460.43 850.167 2469.43 847.5C2478.76 844.833 2486.43 841.5 2492.43 837.5C2498.43 833.167 2501.43 828.167 2501.43 822.5C2501.43 819.833 2500.09 816.5 2497.43 812.5C2494.76 808.5 2489.93 804.833 2482.93 801.5C2475.93 798.167 2465.76 796.5 2452.43 796.5ZM2745.66 1039C2718 1039 2694.5 1017.5 2675.16 974.5C2668.5 959.167 2662.66 942.333 2657.66 924C2652.66 905.667 2648.33 887 2644.66 868C2641.33 849 2638.5 830.833 2636.16 813.5C2634.16 795.833 2632.5 780.333 2631.16 767C2630.16 753.333 2629.33 743 2628.66 736L2710.66 717C2714.66 792.667 2720.66 850.167 2728.66 889.5C2737 928.833 2743.33 948.5 2747.66 948.5C2750 948.5 2752.83 943.833 2756.16 934.5C2759.83 925.167 2763.83 912.833 2768.16 897.5C2772.5 881.833 2776.66 864.667 2780.66 846C2784.66 827.333 2788.16 808.5 2791.16 789.5C2787.16 765.167 2784.5 745.833 2783.16 731.5L2867.66 728.5V734.5C2867.66 748.167 2868.66 764.167 2870.66 782.5C2872.66 800.833 2875.16 819.833 2878.16 839.5C2881.16 858.833 2884.33 876.833 2887.66 893.5C2891.33 910.167 2894.83 923.667 2898.16 934C2901.5 944.333 2904.33 949.5 2906.66 949.5C2908.66 949.5 2911.5 945 2915.16 936C2918.83 927 2922.83 914.667 2927.16 899C2931.83 883.333 2936.5 865.5 2941.16 845.5C2945.83 825.167 2950.33 803.833 2954.66 781.5C2959 758.833 2962.5 736.333 2965.16 714L3047.66 731.5C3042 763.167 3035.16 794.667 3027.16 826C3019.5 857 3011.33 885.833 3002.66 912.5C2994 938.833 2985.5 961 2977.16 979C2958.5 1018.67 2935.33 1038.5 2907.66 1038.5C2898.66 1038.5 2888.33 1035.67 2876.66 1030C2865.33 1024.67 2854.83 1013.33 2845.16 996C2841.83 989.667 2838.5 982 2835.16 973C2831.83 964 2828.66 954 2825.66 943C2821.66 955.333 2817.66 966.333 2813.66 976C2796 1018 2773.33 1039 2745.66 1039Z" fill="#3B82F6"/>
</svg>
