<svg width="610" height="17" viewBox="0 0 610 17" fill="none" xmlns="http://www.w3.org/2000/svg">
<path opacity="0.2" d="M410.604 0.0180664H414V16.6923H410.604V0.0180664ZM398.291 0.464859H401.579V4.84342H405.243V0.464859H408.478V15.9239H398.291V0.464859ZM405.243 13.0823V7.64927H401.579V13.0823H405.243Z" fill="#3B82F6"/>
<path opacity="0.2" d="M392.911 10.7053H386.603V12.9393H383.136V10.7053H376.469V8.04244H392.911V10.7053ZM377.22 11.4917H380.705V14.1367H392.357V16.6923H377.22V11.4917ZM377.22 0.196777H392.161V2.68094H386.603C386.567 3.0622 386.46 3.41368 386.281 3.73537L386.781 3.7175C388.306 3.7175 389.611 4.02727 390.695 4.64682C391.791 5.26638 392.506 6.15996 392.84 7.32758H389.373C388.968 6.79143 388.408 6.38038 387.693 6.09443C386.99 5.80848 386.204 5.66551 385.334 5.66551C384.988 5.66551 384.595 5.6953 384.154 5.75487C383.285 6.23145 382.224 6.60675 380.973 6.88078C379.722 7.15482 378.364 7.30375 376.898 7.32758V4.80767C377.983 4.79576 378.977 4.69448 379.883 4.50385C380.788 4.31322 381.527 4.05706 382.099 3.73537C382.671 3.41368 383.011 3.0622 383.118 2.68094H377.22V0.196777Z" fill="#3B82F6"/>
<path opacity="0.2" d="M367.712 6.20166H365.317V3.50304H367.712V0.0180664H371.108V9.09688H367.712V6.20166ZM356.096 9.75813H359.491V11.0628H367.73V9.75813H371.126V16.6923H356.096V9.75813ZM355.274 6.57697C356.37 6.37442 357.228 5.96338 357.847 5.34382C358.467 4.72427 358.782 3.97962 358.794 3.10987H355.488V0.48273H365.389V3.10987H361.958C361.958 3.58644 361.892 4.05706 361.761 4.52173C363 4.64087 363.989 5.09362 364.728 5.87997C365.466 6.66633 365.842 7.70884 365.854 9.00752H362.708C362.684 8.42371 362.464 7.91139 362.047 7.47055C361.642 7.01781 361.153 6.7676 360.581 6.71994C359.974 7.43481 359.211 8.0067 358.294 8.43563C357.376 8.85263 356.37 9.09688 355.274 9.16836V6.57697ZM367.73 14.4584V13.1895H359.491V14.4584H367.73Z" fill="#3B82F6"/>
<path opacity="0.2" d="M333.953 0.518473H343.55V1.98395H346.266V0.0180664H349.662V12.5819H346.266V7.98883H343.55V9.49005H333.953V0.518473ZM340.404 6.98802V3.00264H337.098V6.98802H340.404ZM334.828 10.6338H338.278V14.0473H350.002V16.6923H334.828V10.6338ZM346.266 5.64764V4.32514H343.55V5.64764H346.266Z" fill="#3B82F6"/>
<path opacity="0.2" d="M315.79 0.0178715H319.186V4.46792H320.794V7.39887H319.186V12.5817H315.79V0.0178715ZM304.799 11.1698H308.248V14.1186H319.615V16.6921H304.799V11.1698ZM313.521 6.75549C313.521 7.94694 313.092 8.87626 312.234 9.54347C311.388 10.2107 310.256 10.5443 308.838 10.5443C307.408 10.5443 306.265 10.2107 305.407 9.54347C304.561 8.87626 304.138 7.94694 304.138 6.75549V5.1113C304.138 4.68238 304.233 4.26537 304.424 3.86028H303.352V1.50122H307.122V0H310.572V1.50122H314.343V3.86028H313.235C313.425 4.26537 313.521 4.68238 313.521 5.1113V6.75549ZM308.838 7.95289C309.315 7.95289 309.696 7.82779 309.982 7.57759C310.268 7.31547 310.411 6.95208 310.411 6.48742V5.18279C310.411 4.71812 310.268 4.36665 309.982 4.12836C309.708 3.89007 309.327 3.77092 308.838 3.77092C308.338 3.77092 307.945 3.89007 307.659 4.12836C307.385 4.36665 307.248 4.71812 307.248 5.18279V6.48742C307.248 7.4644 307.778 7.95289 308.838 7.95289Z" fill="#3B82F6"/>
<path opacity="0.2" d="M289.795 6.73779H298.696V9.86534H289.795V6.73779Z" fill="#3B82F6"/>
<path opacity="0.2" d="M281.181 0.0180664H284.577V10.7947H281.181V0.0180664ZM269.404 14.1903C271.227 14.1546 272.645 13.7733 273.657 13.0465C274.682 12.3078 275.307 11.3725 275.534 10.2407H278.894C278.834 10.8245 278.721 11.3666 278.554 11.867C279.543 11.8312 280.49 11.9861 281.396 12.3316C282.301 12.6772 283.088 13.2193 283.755 13.958C284.422 14.6967 284.893 15.6081 285.167 16.6923H281.61C281.348 15.9536 280.86 15.3758 280.145 14.9588C279.442 14.5299 278.626 14.3154 277.696 14.3154C277.446 14.3154 277.184 14.3333 276.91 14.369C276.076 15.1554 275.021 15.7571 273.747 16.1741C272.472 16.603 271.024 16.8174 269.404 16.8174V14.1903ZM268.832 0.446986H279.519V3.10987H268.832V0.446986ZM268.617 7.00589H270.208V3.89622H273.389V7.00589H275.069V3.89622H278.25V7.00589H280.163V9.45431H268.617V7.00589Z" fill="#3B82F6"/>
<path opacity="0.2" d="M238.517 13.261C240.018 12.8201 241.197 12.0159 242.055 10.8483C242.913 9.66877 243.342 8.11393 243.342 6.18379V3.43156H238.606V0.58996H246.416V6.16592V6.63059H247.846V0.0180664H250.795V16.6923H247.846V9.32921H246.059C245.594 11.2713 244.712 12.844 243.414 14.0473C242.115 15.2388 240.483 16.0013 238.517 16.3349V13.261ZM251.867 0.0180664H254.816V16.6923H251.867V0.0180664Z" fill="#3B82F6"/>
<path opacity="0.2" d="M230.421 0.0180664H233.37V16.6923H230.421V0.0180664ZM226.489 9.45431H225.095V11.9385C225.095 13.2967 224.762 14.3571 224.094 15.1196C223.439 15.8822 222.468 16.2634 221.181 16.2634C219.883 16.2634 218.9 15.8822 218.232 15.1196C217.577 14.3571 217.25 13.2967 217.25 11.9385V4.61109C217.25 3.26475 217.577 2.21033 218.232 1.4478C218.9 0.673361 219.877 0.286141 221.163 0.286141C222.462 0.286141 223.439 0.667403 224.094 1.42993C224.762 2.19245 225.095 3.25284 225.095 4.61109V6.66633H226.489V0.0180664H229.349V16.6923H226.489V9.45431ZM220.216 12.4925C220.216 12.8618 220.3 13.1537 220.466 13.3682C220.645 13.5708 220.877 13.672 221.163 13.672C221.449 13.672 221.682 13.5708 221.86 13.3682C222.039 13.1537 222.128 12.8618 222.128 12.4925V4.03919C222.128 3.68176 222.045 3.40177 221.878 3.19922C221.711 2.98476 221.485 2.87753 221.199 2.87753C220.901 2.87753 220.663 2.97881 220.484 3.18135C220.306 3.37198 220.216 3.65793 220.216 4.03919V12.4925Z" fill="#3B82F6"/>
<path opacity="0.2" d="M206.437 15.7988H196V0.58996H199.378V12.9572H206.437V15.7988ZM207.724 0.0180664H211.119V6.25528H212.817V9.18623H211.119V16.6923H207.724V0.0180664Z" fill="#3B82F6"/>
</svg>
