<svg width="1008" height="734" viewBox="0 0 1008 734" fill="none" xmlns="http://www.w3.org/2000/svg">
<g filter="url(#filter0_d_1628_435)">
<path d="M674.524 453.342L646.294 467.015L646.287 467L213.247 676.758L117.299 723.2C104.02 729.697 87.0732 724.421 79.6836 711.65L7.67677 587.05C4.16329 580.699 3.12138 573.274 4.75197 566.202C6.38257 559.13 10.5705 552.91 16.5108 548.736L528.953 201.252L674.524 453.342ZM665.635 30.2304C717.432 0.327271 778.994 -7.7906 836.78 7.66207C894.567 23.1148 943.846 60.8728 973.778 112.632C1003.69 164.41 1011.8 225.944 996.313 283.695C980.83 341.447 943.024 390.686 891.214 420.581C840.542 449.732 783.758 455.397 730.919 443.625L565.568 157.33C581.848 105.691 615.074 59.3817 665.635 30.2304ZM788.363 95.1972C776.785 91.9635 764.467 92.5999 753.283 97.0097L753.208 97.04C741.175 101.86 730.061 108.357 713.149 118.184C696.769 127.701 685.769 134.058 675.893 141.769L674.88 142.566C665.511 150.099 658.859 160.486 655.936 172.146C653.019 183.777 653.972 196.039 658.646 207.079V207.08C658.658 207.108 658.67 207.137 658.682 207.165H658.683C667.191 227.487 679.437 248.517 690.585 267.703C701.763 286.94 713.988 308.027 727.453 325.496V325.494C734.737 335.012 744.922 341.899 756.469 345.114C768.038 348.335 780.343 347.695 791.515 343.287C791.526 343.283 791.537 343.277 791.548 343.272C803.596 338.485 814.757 331.961 831.66 322.139C848.547 312.326 859.719 305.873 869.865 297.806L869.929 297.756L870.799 297.041C879.71 289.573 886.042 279.472 888.875 268.176C891.793 256.538 890.837 244.267 886.154 233.223L886.155 233.224C879.508 217.389 870.595 201.111 861.695 185.593L869.678 180.954C874.225 185.171 879.607 188.363 885.855 190.019C897.127 193.005 908.429 190.26 918.43 184.449C928.431 178.638 936.409 170.178 939.38 158.897C942.348 147.627 939.58 136.339 933.78 126.358C927.969 116.357 919.511 108.38 908.241 105.398C896.975 102.418 885.685 105.169 875.701 110.97C865.707 116.777 857.735 125.234 854.751 136.497C853.098 142.735 853.204 148.982 854.61 155.013L846.623 159.653C837.925 144.877 828.623 129.744 818.638 116.516L817.383 114.867C810.106 105.331 799.918 98.4245 788.363 95.1972ZM764.288 124.919C769.39 122.907 775.011 122.616 780.294 124.092C785.576 125.567 790.232 128.728 793.553 133.092C793.567 133.111 793.583 133.13 793.598 133.149C805.625 148.797 816.845 168.062 828.245 187.681C839.66 207.325 850.854 226.638 858.493 244.835C858.503 244.857 858.512 244.88 858.521 244.902C860.669 249.949 861.109 255.559 859.775 260.879C858.441 266.199 855.406 270.937 851.132 274.374C843.077 280.769 834.043 286.057 816.588 296.199C799.076 306.375 790.027 311.591 780.504 315.379C775.407 317.39 769.793 317.683 764.515 316.214C759.236 314.744 754.582 311.592 751.258 307.237L751.215 307.182C739.172 291.557 727.94 272.277 716.524 252.631C705.123 233.01 693.934 213.704 686.323 195.505C686.311 195.477 686.3 195.448 686.288 195.42C684.141 190.373 683.7 184.763 685.034 179.443C686.327 174.29 689.215 169.681 693.28 166.273L693.678 165.948C701.707 159.569 710.736 154.283 728.222 144.123C745.701 133.967 754.744 128.751 764.288 124.919ZM808.771 241.856C804.608 234.694 795.427 232.261 788.265 236.423L778.68 241.993C771.517 246.155 769.084 255.335 773.246 262.498C777.408 269.661 786.589 272.093 793.752 267.932L803.337 262.362C810.5 258.2 812.932 249.019 808.771 241.856ZM771.491 177.701C767.329 170.538 758.149 168.106 750.986 172.268L741.4 177.837C734.238 181.999 731.806 191.18 735.968 198.343C740.13 205.505 749.31 207.938 756.473 203.776L766.059 198.206C773.221 194.044 775.653 184.864 771.491 177.701ZM890.773 136.908C895.982 133.882 899.057 134.001 900.568 134.4C902.077 134.799 904.81 136.215 907.841 141.431C910.883 146.667 910.766 149.751 910.369 151.258C909.975 152.755 908.573 155.479 903.357 158.51C898.141 161.541 895.057 161.422 893.538 161.019C892.019 160.617 889.281 159.193 886.25 153.977C883.229 148.778 883.348 145.699 883.75 144.181C884.153 142.662 885.575 139.929 890.773 136.908Z" fill="#3B82F6"/>
</g>
<defs>
<filter id="filter0_d_1628_435" x="0" y="0" width="1008" height="733.988" filterUnits="userSpaceOnUse" color-interpolation-filters="sRGB">
<feFlood flood-opacity="0" result="BackgroundImageFix"/>
<feColorMatrix in="SourceAlpha" type="matrix" values="0 0 0 0 0 0 0 0 0 0 0 0 0 0 0 0 0 0 127 0" result="hardAlpha"/>
<feOffset dy="4"/>
<feGaussianBlur stdDeviation="2"/>
<feComposite in2="hardAlpha" operator="out"/>
<feColorMatrix type="matrix" values="0 0 0 0 0 0 0 0 0 0 0 0 0 0 0 0 0 0 0.25 0"/>
<feBlend mode="normal" in2="BackgroundImageFix" result="effect1_dropShadow_1628_435"/>
<feBlend mode="normal" in="SourceGraphic" in2="effect1_dropShadow_1628_435" result="shape"/>
</filter>
</defs>
</svg>
