<svg width="28" height="28" viewBox="0 0 28 28" fill="none" xmlns="http://www.w3.org/2000/svg">
<path d="M14 25.6663C20.4433 25.6663 25.6667 20.443 25.6667 13.9997C25.6667 7.55635 20.4433 2.33301 14 2.33301C7.55669 2.33301 2.33334 7.55635 2.33334 13.9997C2.33334 20.443 7.55669 25.6663 14 25.6663Z" stroke="#3B82F6" stroke-width="2.33333" stroke-linecap="round" stroke-linejoin="round"/>
<path d="M14 21C17.866 21 21 17.866 21 14C21 10.134 17.866 7 14 7C10.134 7 7 10.134 7 14C7 17.866 10.134 21 14 21Z" stroke="#3B82F6" stroke-width="2.33333" stroke-linecap="round" stroke-linejoin="round"/>
<path d="M14 16.3337C15.2887 16.3337 16.3333 15.289 16.3333 14.0003C16.3333 12.7117 15.2887 11.667 14 11.667C12.7113 11.667 11.6667 12.7117 11.6667 14.0003C11.6667 15.289 12.7113 16.3337 14 16.3337Z" stroke="#3B82F6" stroke-width="2.33333" stroke-linecap="round" stroke-linejoin="round"/>
</svg>
