<svg width="24" height="24" viewBox="0 0 24 24" fill="none" xmlns="http://www.w3.org/2000/svg">
<path d="M5 7C5 6.44772 5.44772 6 6 6C6.55228 6 7 6.44772 7 7V17C7 17.5523 6.55228 18 6 18C5.44772 18 5 17.5523 5 17V7Z" fill="#303030"/>
<path d="M9 5C9 4.44772 9.44772 4 10 4C10.5523 4 11 4.44772 11 5V19C11 19.5523 10.5523 20 10 20C9.44772 20 9 19.5523 9 19V5Z" fill="#303030"/>
<path d="M13 8C13 7.44772 13.4477 7 14 7C14.5523 7 15 7.44772 15 8V16C15 16.5523 14.5523 17 14 17C13.4477 17 13 16.5523 13 16V8Z" fill="#303030"/>
<path d="M17 6C17 5.44772 17.4477 5 18 5C18.5523 5 19 5.44772 19 6V18C19 18.5523 18.5523 19 18 19C17.4477 19 17 18.5523 17 18V6Z" fill="#303030"/>
</svg>
